<svg width="24" height="24" viewBox="0 0 24 24" fill="none" xmlns="http://www.w3.org/2000/svg">
  <path d="M12 2C13.1 2 14 2.9 14 4V5H10V4C10 2.9 10.9 2 12 2Z" fill="currentColor"/>
  <path d="M4 8C4 6.9 4.9 6 6 6H18C19.1 6 20 6.9 20 8V18C20 19.1 19.1 20 18 20H6C4.9 20 4 19.1 4 18V8Z" stroke="currentColor" stroke-width="2"/>
  <rect x="7" y="10" width="4" height="3" rx="1" fill="currentColor"/>
  <rect x="13" y="10" width="4" height="3" rx="1" fill="currentColor"/>
  <path d="M8 15H16" stroke="currentColor" stroke-width="2" stroke-linecap="round"/>
</svg>
